<svg width="44" height="40" viewBox="0 0 44 40" fill="none" xmlns="http://www.w3.org/2000/svg">
<path d="M13.6641 4.9375H20.957" stroke="white" stroke-width="3.125" stroke-miterlimit="1.5" stroke-linecap="round" stroke-linejoin="round"/>
<path fill-rule="evenodd" clip-rule="evenodd" d="M24.082 3.375C24.082 5.10156 22.6836 6.5 20.957 6.5C19.2305 6.5 17.832 5.10156 17.832 3.375C17.832 1.64844 19.2305 0.25 20.957 0.25C22.6836 0.25 24.082 1.64844 24.082 3.375Z" fill="white"/>
<path fill-rule="evenodd" clip-rule="evenodd" d="M16.7891 3.375C16.7891 5.10156 15.3906 6.5 13.6641 6.5C11.9414 6.5 10.5391 5.10156 10.5391 3.375C10.5391 1.64844 11.9414 0.25 13.6641 0.25C15.3906 0.25 16.7891 1.64844 16.7891 3.375Z" fill="white"/>
<path d="M14.1875 34.1055H28.7695" stroke="white" stroke-width="3.125" stroke-miterlimit="1.5" stroke-linecap="round" stroke-linejoin="round"/>
<path d="M37.1016 34.1055L39.6914 33.0703C41.2734 32.4375 42.3125 30.9023 42.3125 29.1992V26.2969C42.3125 24.7852 41.2305 23.4922 39.7461 23.2227L30.8516 21.6055H3.76953C2.61719 21.6055 1.6875 22.5352 1.6875 23.6875V29.4453C1.6875 31.0234 2.57813 32.4648 3.98828 33.1719L5.85156 34.1055" stroke="white" stroke-width="3.125" stroke-miterlimit="1.5" stroke-linecap="round" stroke-linejoin="round"/>
<path d="M31.2188 21.6602L26.7852 15.4492C25.8086 14.082 24.2305 13.2695 22.5469 13.2695H10.0195C8.70703 13.2695 7.47656 13.8828 6.69141 14.9297C5.60156 16.3867 4.02344 18.4883 2.93359 19.9414C2.12109 21.0234 1.6875 22.3359 1.6875 23.6875V27.8555" stroke="white" stroke-width="3.125" stroke-miterlimit="1.5" stroke-linecap="round" stroke-linejoin="round"/>
<path d="M14.1875 34.1055C14.1875 36.4063 12.3203 38.2695 10.0195 38.2695C7.71875 38.2695 5.85156 36.4063 5.85156 34.1055C5.85156 31.8047 7.71875 29.9375 10.0195 29.9375C12.3203 29.9375 14.1875 31.8047 14.1875 34.1055Z" stroke="white" stroke-width="3.125" stroke-miterlimit="1.5" stroke-linecap="round" stroke-linejoin="round"/>
<path d="M37.1016 34.1055C37.1016 36.4063 35.2383 38.2695 32.9375 38.2695C30.6367 38.2695 28.7695 36.4063 28.7695 34.1055C28.7695 31.8047 30.6367 29.9375 32.9375 29.9375C35.2383 29.9375 37.1016 31.8047 37.1016 34.1055Z" stroke="white" stroke-width="3.125" stroke-miterlimit="1.5" stroke-linecap="round" stroke-linejoin="round"/>
<path d="M17.3125 21.6055V4.9375" stroke="white" stroke-width="3.125" stroke-miterlimit="10" stroke-linecap="round"/>
</svg>
