<svg width="45" height="47" viewBox="0 0 45 47" fill="none" xmlns="http://www.w3.org/2000/svg">
<path d="M31.0391 10H29.0391C28.9805 11.8789 28.5391 13.8281 28.0586 15.1602L27.7383 15.9883L28.5312 16.3789C28.6211 16.4492 28.8594 16.7891 28.8008 17.5117C28.6719 18.9883 28.1992 19.3789 28.1016 19.3984H27.1914L27.1016 20.3086C26.9219 22.1992 25.8594 24.1602 25.5 24.4297L25 24.7188V29.6914L25.0703 29.8594C25.5313 31.0781 26.4688 31.9297 27.6602 32.6289C28.0117 32.1719 28.1992 31.3281 28.1289 30.5508C27.6211 30.1914 27.2188 29.7812 27 29.3008V25.75C27.8516 24.8281 28.6914 22.9219 29 21.1797C29.7109 20.8281 30.5898 19.9414 30.8008 17.6797C30.8906 16.5586 30.5781 15.7305 30.1484 15.1992C30.5898 13.8086 30.9883 11.9102 31.0391 10Z" fill="white"/>
<path d="M3.12109 41C3.85156 37.0117 7.35156 35.6094 10.75 34.25C13.4492 33.1719 16 32.1484 16.8398 29.8398L16.8984 29.6797V25.3008L16.9219 24.7305L16.4219 24.4414C16.0391 24.1602 14.9805 22.1992 14.8008 20.3086L14.7812 19.4102H13.8711C13.7305 19.3516 13.2813 18.8789 13.1016 17.5195C13.0898 17.4609 13.0898 17.3984 13.0898 17.3398C13.0898 16.6289 13.4609 16.3281 13.4609 16.3281L14.0391 15.9414L13.8711 15.25C13.3594 13.2617 13.2891 11.4883 13.6406 10H11.5898C11.3398 11.3906 11.3398 13.1094 11.8008 15.1914C11.3906 15.7188 11.0117 16.5703 11.1094 17.7383C11.3984 19.8906 12.2188 20.7812 12.8906 21.1484C13.1992 22.8984 14.0508 24.8281 14.8984 25.75V29.3086C14.2891 30.6797 12.3008 31.4805 10.0117 32.3984C6.14062 33.9414 1.33984 35.8711 1 41.9492L0.941406 43H23.6094C23.2891 42.3203 23.1016 41.6406 23.0312 41H3.12109Z" fill="white"/>
<path d="M26 29.5C26 30.6992 23.8008 32 21 32C18.1992 32 16 30.8008 16 29.5" stroke="white" stroke-width="2" stroke-miterlimit="10" stroke-linecap="round"/>
<path d="M34.3791 27C39.5353 27 43.0002 31.9531 43.0002 36.5781C43.0002 44.3945 36.7697 45 34.8635 45C28.9377 45 27.0002 41.6094 27.0002 40.4297C26.9846 38.0742 28.215 37.2109 29.5158 36.293L29.758 36.1211C31.8752 34.6172 32.3322 31.8437 32.0822 29.9297C31.9924 29.2383 31.9924 28.2969 32.508 27.6992C33.0158 27.1094 33.8596 27.0078 34.2814 27H34.3791ZM34.3791 25C34.3791 25 34.2853 25 34.2814 25C31.8713 25.043 29.633 26.5938 30.1017 30.1875C30.3049 31.7656 29.8283 33.6172 28.5978 34.4922C27.2033 35.4844 24.9767 36.8477 25.0002 40.4414C25.0002 42.582 27.6486 47 34.8635 47C39.5939 47 45.0002 44.2734 45.0002 36.5781C45.0002 30.9922 40.801 25 34.3791 25Z" fill="white"/>
<path d="M38 31C38 32.1055 37.1055 33 36 33C34.8945 33 34 32.1055 34 31C34 29.8945 34.8945 29 36 29C37.1055 29 38 29.8945 38 31Z" fill="white"/>
<path d="M30.5 42C31.3281 42 32 41.3281 32 40.5C32 39.6719 31.3281 39 30.5 39C29.6719 39 29 39.6719 29 40.5C29 41.3281 29.6719 42 30.5 42Z" fill="white"/>
<path d="M34.5 44C35.3281 44 36 43.3281 36 42.5C36 41.6719 35.3281 41 34.5 41C33.6719 41 33 41.6719 33 42.5C33 43.3281 33.6719 44 34.5 44Z" fill="white"/>
<path d="M38.5 42C39.3281 42 40 41.3281 40 40.5C40 39.6719 39.3281 39 38.5 39C37.6719 39 37 39.6719 37 40.5C37 41.3281 37.6719 42 38.5 42Z" fill="white"/>
<path d="M39.5 38C40.3281 38 41 37.3281 41 36.5C41 35.6719 40.3281 35 39.5 35C38.6719 35 38 35.6719 38 36.5C38 37.3281 38.6719 38 39.5 38Z" fill="white"/>
<path d="M26.7384 3C27.5509 3.35156 29.5158 4.69922 30.1486 5.77734C30.1837 6.29297 29.922 7.61719 29.5314 9H11.0314C10.9142 8.99609 10.5236 8.94531 10.2345 8.78516C12.508 7.06641 18.633 3.08594 26.7384 3ZM27.0001 1C18.3244 1 11.7658 5.11719 9.02749 7.19141C7.94155 8.01562 8.01577 9.67578 9.14858 10.4336C10.0001 11 11.0001 11 11.0001 11H31.0001C31.0001 11 32.633 6.26562 32.0001 5C31.0001 3 27.5939 1 27.0001 1Z" fill="white"/>
<path d="M17 1C17 1 19 1 19 3" stroke="white" stroke-width="2" stroke-miterlimit="10" stroke-linecap="round"/>
</svg>
