<svg width="29" height="26" viewBox="0 0 29 26" fill="none" xmlns="http://www.w3.org/2000/svg">
<path d="M14.2676 3.82258L14.6738 4.38873L15.0801 3.82258C16.4003 1.98264 18.5494 0.781738 20.9837 0.781738C24.9956 0.781738 28.2486 4.03462 28.2486 8.04743C28.2486 8.61317 28.1769 9.16321 28.051 9.69704L28.0469 9.71462L28.044 9.73245C27.5278 12.9447 25.4678 16.2984 22.8387 19.1078C20.2693 21.8533 17.2156 24.0156 14.6738 24.9851C12.1317 24.0156 9.07797 21.8533 6.5085 19.1077C3.8793 16.2982 1.81912 12.9442 1.3021 9.73156L1.29934 9.71443L1.29541 9.69753C1.17081 9.16282 1.09912 8.61239 1.09912 8.04743C1.09912 4.0339 4.35201 0.781738 8.36481 0.781738C10.7982 0.781738 12.9473 1.98262 14.2676 3.82258Z" stroke="#060192"/>
</svg>
