<svg width="14" height="14" viewBox="0 0 14 14" fill="none" xmlns="http://www.w3.org/2000/svg">
<path d="M13.5999 11.5961L10.9826 9.04692C11.6109 8.12467 11.9786 7.02042 11.9786 5.83333C11.9786 2.61683 9.29181 0 5.9893 0C2.6868 0 0 2.61683 0 5.83333C0 9.04983 2.6868 11.6667 5.9893 11.6667C7.20813 11.6667 8.3419 11.3085 9.28881 10.6966L11.9055 13.2458C12.1397 13.4738 12.5188 13.4738 12.7524 13.2458L13.5993 12.4209C13.8335 12.1928 13.8341 11.8236 13.5999 11.5961ZM1.19786 5.83333C1.19786 3.26025 3.34742 1.16667 5.9893 1.16667C8.63119 1.16667 10.7807 3.26025 10.7807 5.83333C10.7807 8.40642 8.63119 10.5 5.9893 10.5C3.34742 10.5 1.19786 8.40642 1.19786 5.83333Z" fill="#A9A9A9"/>
</svg>
