<svg width="15" height="16" viewBox="0 0 15 16" fill="none" xmlns="http://www.w3.org/2000/svg">
<path d="M10.9084 8.8C11.4707 8.8 11.9656 8.472 12.2205 7.976L14.9045 2.784C15.1819 2.256 14.822 1.6 14.2522 1.6H3.15633L2.45159 0H0V1.6H1.49944L4.19844 7.672L3.18632 9.624C2.63902 10.696 3.35875 12 4.49833 12H13.495V10.4H4.49833L5.32302 8.8H10.9084ZM3.86856 3.2H12.9777L10.9084 7.2H5.6454L3.86856 3.2ZM4.49833 12.8C3.67364 12.8 3.00638 13.52 3.00638 14.4C3.00638 15.28 3.67364 16 4.49833 16C5.32302 16 5.99777 15.28 5.99777 14.4C5.99777 13.52 5.32302 12.8 4.49833 12.8ZM11.9955 12.8C11.1709 12.8 10.5036 13.52 10.5036 14.4C10.5036 15.28 11.1709 16 11.9955 16C12.8202 16 13.495 15.28 13.495 14.4C13.495 13.52 12.8202 12.8 11.9955 12.8Z" fill="white"/>
</svg>
