<svg width="14" height="14" viewBox="0 0 14 14" fill="none" xmlns="http://www.w3.org/2000/svg">
<path d="M13.2458 11.5961L10.6966 9.04692C11.3085 8.12467 11.6667 7.02042 11.6667 5.83333C11.6667 2.61683 9.04983 0 5.83333 0C2.61683 0 0 2.61683 0 5.83333C0 9.04983 2.61683 11.6667 5.83333 11.6667C7.02042 11.6667 8.12467 11.3085 9.04692 10.6966L11.5955 13.2458C11.8236 13.4738 12.1928 13.4738 12.4203 13.2458L13.2452 12.4209C13.4732 12.1928 13.4738 11.8236 13.2458 11.5961ZM1.16667 5.83333C1.16667 3.26025 3.26025 1.16667 5.83333 1.16667C8.40642 1.16667 10.5 3.26025 10.5 5.83333C10.5 8.40642 8.40642 10.5 5.83333 10.5C3.26025 10.5 1.16667 8.40642 1.16667 5.83333Z" fill="#130C0D"/>
</svg>
