<svg width="11" height="10" viewBox="0 0 11 10" fill="none" xmlns="http://www.w3.org/2000/svg">
<path d="M8.50403 9.99957C8.37338 9.99957 8.24325 9.96164 8.13127 9.88577L5.49963 8.09217L2.86799 9.88577C2.64351 10.0385 2.34281 10.0385 2.11988 9.88331C1.89694 9.72961 1.8031 9.45769 1.88657 9.20892L2.86851 6.19905L0.260206 4.45274C0.038311 4.29756 -0.0534542 4.02465 0.0310526 3.77539C0.116596 3.52711 0.359748 3.35815 0.635043 3.35618L3.82194 3.35027L4.89357 0.415766C4.98067 0.167489 5.22485 0 5.50015 0C5.77545 0 6.01963 0.167489 6.10673 0.415766L7.07416 3.35027L10.3647 3.35618C10.6406 3.35815 10.8842 3.52711 10.9687 3.77539C11.0538 4.02465 10.9615 4.29756 10.7396 4.45274L8.13127 6.19905L9.11269 9.20892C9.19668 9.45769 9.1018 9.73011 8.87991 9.88331C8.7674 9.96114 8.63572 9.99957 8.50403 9.99957Z" fill="#FFAC33"/>
</svg>
